<svg width="10" height="16" viewBox="0 0 10 16" fill="none" xmlns="http://www.w3.org/2000/svg">
<path fill-rule="evenodd" clip-rule="evenodd" d="M0.344274 8.67343C0.123836 8.45292 0 8.15389 0 7.8421C0 7.5303 0.123836 7.23128 0.344274 7.01077L6.99608 0.358974C7.10455 0.246668 7.2343 0.157089 7.37776 0.0954638C7.52122 0.0338385 7.67551 0.00140111 7.83164 4.43959e-05C7.98777 -0.00131232 8.14261 0.0284391 8.28712 0.087562C8.43162 0.146685 8.56291 0.233996 8.67332 0.344399C8.78372 0.454803 8.87103 0.586089 8.93015 0.730597C8.98928 0.875105 9.01903 1.02994 9.01767 1.18607C9.01631 1.3422 8.98388 1.49649 8.92225 1.63995C8.86063 1.78341 8.77105 1.91316 8.65874 2.02163L2.83826 7.8421L8.65874 13.6626C8.87293 13.8843 8.99145 14.1814 8.98877 14.4897C8.98609 14.798 8.86243 15.0929 8.64442 15.3109C8.4264 15.5289 8.13148 15.6526 7.82318 15.6553C7.51487 15.6579 7.21785 15.5394 6.99608 15.3252L0.344274 8.67343Z" fill="white"/>
</svg>
