<svg width="10" height="16" viewBox="0 0 10 16" fill="none" xmlns="http://www.w3.org/2000/svg">
<path fill-rule="evenodd" clip-rule="evenodd" d="M8.67343 6.98185C8.89386 7.20235 9.0177 7.50138 9.0177 7.81317C9.0177 8.12497 8.89386 8.424 8.67343 8.6445L2.02162 15.2963C1.91315 15.4086 1.7834 15.4982 1.63994 15.5598C1.49649 15.6214 1.34219 15.6539 1.18606 15.6552C1.02993 15.6566 0.875096 15.6268 0.730588 15.5677C0.58608 15.5086 0.454793 15.4213 0.344389 15.3109C0.233985 15.2005 0.146674 15.0692 0.0875508 14.9247C0.0284278 14.7802 -0.00132304 14.6253 3.36834e-05 14.4692C0.0013904 14.3131 0.0338278 14.1588 0.0954532 14.0153C0.157078 13.8719 0.246657 13.7421 0.358963 13.6336L6.17944 7.81317L0.358963 1.9927C0.144772 1.77093 0.0262526 1.47391 0.0289317 1.16561C0.0316108 0.857302 0.155274 0.562383 0.373287 0.344371C0.5913 0.126358 0.886219 0.00269384 1.19452 1.4752e-05C1.50283 -0.00266433 1.79985 0.115855 2.02162 0.330046L8.67343 6.98185Z" fill="white"/>
</svg>
