<svg width="21" height="21" viewBox="0 0 21 21" fill="none" xmlns="http://www.w3.org/2000/svg">
<path d="M0 4.0315C0 2.13065 -6.0074e-08 1.18123 0.590614 0.590614C1.18123 -6.0074e-08 2.13065 0 4.0315 0C5.93235 0 6.88176 -6.0074e-08 7.47238 0.590614C8.06299 1.18123 8.06299 2.13065 8.06299 4.0315V16.126C8.06299 18.0268 8.06299 18.9763 7.47238 19.5669C6.88176 20.1575 5.93235 20.1575 4.0315 20.1575C2.13065 20.1575 1.18123 20.1575 0.590614 19.5669C-6.0074e-08 18.9763 0 18.0268 0 16.126V4.0315ZM12.0945 4.0315C12.0945 2.13065 12.0945 1.18123 12.6851 0.590614C13.2757 -6.0074e-08 14.2251 0 16.126 0C18.0268 0 18.9763 -6.0074e-08 19.5669 0.590614C20.1575 1.18123 20.1575 2.13065 20.1575 4.0315V16.126C20.1575 18.0268 20.1575 18.9763 19.5669 19.5669C18.9763 20.1575 18.0268 20.1575 16.126 20.1575C14.2251 20.1575 13.2757 20.1575 12.6851 19.5669C12.0945 18.9763 12.0945 18.0268 12.0945 16.126V4.0315Z" fill="white"/>
</svg>
