<svg width="20" height="19" viewBox="0 0 20 19" fill="none" xmlns="http://www.w3.org/2000/svg">
<path d="M0 16.7942V1.52675C0 1.09417 0.146568 0.731826 0.439703 0.439708C0.732838 0.147591 1.09519 0.0010231 1.52675 5.26463e-06C1.95831 -0.00101257 2.32116 0.145555 2.61532 0.439708C2.90947 0.733861 3.05553 1.09621 3.05349 1.52675V16.7942C3.05349 17.2268 2.90692 17.5896 2.61379 17.8828C2.32065 18.1759 1.95831 18.322 1.52675 18.321C1.09519 18.3199 0.732838 18.1734 0.439703 17.8813C0.146568 17.5891 0 17.2268 0 16.7942ZM8.43527 16.9469C7.92635 17.2522 7.41133 17.2522 6.8902 16.9469C6.36907 16.6415 6.108 16.1962 6.10698 15.611V2.70998C6.10698 2.12473 6.36806 1.67943 6.8902 1.37408C7.41235 1.06873 7.92737 1.06873 8.43527 1.37408L19.1988 7.86275C19.7077 8.1681 19.9622 8.60067 19.9622 9.16048C19.9622 9.72029 19.7077 10.1529 19.1988 10.4582L8.43527 16.9469Z" fill="white"/>
</svg>
